HIERARCHY
ROOT Hips
{
	OFFSET 0.000000 0.000000 0.000000
	CHANNELS 6 Xposition Yposition Zposition Zrotation Yrotation Xrotation 
	JOINT LHipJoint
	{
		OFFSET 0.000000 0.000000 0.000000
		CHANNELS 3 Zrotation Yrotation Xrotation
		JOINT LeftUpLeg
		{
			OFFSET 1.363060 -1.794630 0.839290
			CHANNELS 3 Zrotation Yrotation Xrotation
			JOINT LeftLeg
			{
				OFFSET 2.448110 -6.726130 0.000000
				CHANNELS 3 Zrotation Yrotation Xrotation
				JOINT LeftFoot
				{
					OFFSET 2.562200 -7.039590 0.000000
					CHANNELS 3 Zrotation Yrotation Xrotation
					JOINT LeftToeBase
					{
						OFFSET 0.157640 -0.433110 2.322550
						CHANNELS 3 Zrotation Yrotation Xrotation
						End Site
						{
							OFFSET 0.000000 0.000000 0.000000
						}
					}
				}
			}
		}
	}
	JOINT RHipJoint
	{
		OFFSET 0.000000 0.000000 0.000000
		CHANNELS 3 Zrotation Yrotation Xrotation
		JOINT RightUpLeg
		{
			OFFSET -1.305520 -1.794630 0.839290
			CHANNELS 3 Zrotation Yrotation Xrotation
			JOINT RightLeg
			{
				OFFSET -2.542530 -6.985550 0.000000
				CHANNELS 3 Zrotation Yrotation Xrotation
				JOINT RightFoot
				{
					OFFSET -2.568260 -7.056230 0.000000
					CHANNELS 3 Zrotation Yrotation Xrotation
					JOINT RightToeBase
					{
						OFFSET -0.164730 -0.452590 2.363150
						CHANNELS 3 Zrotation Yrotation Xrotation
						End Site
						{
							OFFSET 0.000000 0.000000 0.000000
						}
					}
				}
			}
		}
	}
	JOINT LowerBack
	{
		OFFSET 0.000000 0.000000 0.000000
		CHANNELS 3 Zrotation Yrotation Xrotation
		JOINT Spine
		{
			OFFSET 0.028270 2.035590 -0.193380
			CHANNELS 3 Zrotation Yrotation Xrotation
			JOINT Spine1
			{
				OFFSET 0.056720 2.048850 -0.042750
				CHANNELS 3 Zrotation Yrotation Xrotation
				JOINT Neck
				{
					OFFSET 0.000000 0.000000 0.000000
					CHANNELS 3 Zrotation Yrotation Xrotation
					JOINT Neck1
					{
						OFFSET -0.054170 1.746240 0.172020
						CHANNELS 3 Zrotation Yrotation Xrotation
						JOINT Head
						{
							OFFSET 0.104070 1.761360 -0.123970
							CHANNELS 3 Zrotation Yrotation Xrotation
							End Site
							{
								OFFSET 0.000000 0.000000 0.000000
							}
						}
					}
				}
				JOINT LeftShoulder
				{
					OFFSET 0.000000 0.000000 0.000000
					CHANNELS 3 Zrotation Yrotation Xrotation
					JOINT LeftArm
					{
						OFFSET 3.362410 1.200890 -0.311210
						CHANNELS 3 Zrotation Yrotation Xrotation
						JOINT LeftForeArm
						{
							OFFSET 4.983000 -0.000000 -0.000000
							CHANNELS 3 Zrotation Yrotation Xrotation
							JOINT LeftHand
							{
								OFFSET 3.483560 -0.000000 -0.000000
								CHANNELS 3 Zrotation Yrotation Xrotation
								JOINT LeftFingerBase
								{
									OFFSET 0.000000 0.000000 0.000000
									CHANNELS 3 Zrotation Yrotation Xrotation
									JOINT LeftHandIndex1
									{
										OFFSET 0.715260 -0.000000 -0.000000
										CHANNELS 3 Zrotation Yrotation Xrotation
										End Site
										{
											OFFSET 0.000000 0.000000 0.000000
										}
									}
								}
								JOINT LThumb
								{
									OFFSET 0.000000 0.000000 0.000000
									CHANNELS 3 Zrotation Yrotation Xrotation
									End Site
									{
										OFFSET 0.000000 0.000000 0.000000
									}
								}
							}
						}
					}
				}
				JOINT RightShoulder
				{
					OFFSET 0.000000 0.000000 0.000000
					CHANNELS 3 Zrotation Yrotation Xrotation
					JOINT RightArm
					{
						OFFSET -3.136600 1.374050 -0.404650
						CHANNELS 3 Zrotation Yrotation Xrotation
						JOINT RightForeArm
						{
							OFFSET -5.241900 -0.000000 -0.000000
							CHANNELS 3 Zrotation Yrotation Xrotation
							JOINT RightHand
							{
								OFFSET -3.444170 -0.000000 -0.000000
								CHANNELS 3 Zrotation Yrotation Xrotation
								JOINT RightFingerBase
								{
									OFFSET 0.000000 0.000000 0.000000
									CHANNELS 3 Zrotation Yrotation Xrotation
									JOINT RightHandIndex1
									{
										OFFSET -0.622530 -0.000000 -0.000000
										CHANNELS 3 Zrotation Yrotation Xrotation
										End Site
										{
											OFFSET 0.000000 0.000000 0.000000
										}
									}
								}
								JOINT RThumb
								{
									OFFSET 0.000000 0.000000 0.000000
									CHANNELS 3 Zrotation Yrotation Xrotation
									End Site
									{
										OFFSET 0.000000 0.000000 0.000000
									}
								}
							}
						}
					}
				}
			}
		}
	}
}
MOTION
Frames: 7
Frame Time: 0.008333
3.056160 18.021454 9.334904 -174.069022 4.772491 -171.214928 -3.703003 -3.843558 -2.023974 -5.087676 3.379273 -26.475737 0.685413 10.291597 26.947392 -0.618363 5.390227 8.557667 0.031800 1.150900 3.164200 3.481715 3.433031 -0.894522 15.563336 1.309611 -16.084156 -2.000730 -12.525486 34.237537 -1.376100 3.346102 2.772864 -0.008000 0.577000 -1.585500 0.931834 2.126131 7.912441 4.179701 3.137053 0.239174 -2.752609 1.588623 -8.931220 -4.019973 -1.951213 -24.786677 12.042607 -2.814848 22.877747 1.908900 0.188600 12.378300 0.509251 -1.287719 -1.458394 -81.477063 2.285208 48.721615 19.837836 -28.245771 -6.761608 -1.304882 -2.049115 -12.573144 16.451053 10.224407 3.876200 -7.125000 0.000000 0.000000 -8.119500 42.352000 0.534300 0.898804 5.282425 0.894637 86.896489 -19.147708 19.763087 -36.052986 45.135262 -14.509574 0.555337 -0.788628 -28.559071 -17.863668 -6.314323 1.717800 7.125000 0.000000 0.000000 7.258700 -35.475600 1.709900 
2.995023 18.031509 9.302659 -174.146846 5.223268 -171.056899 -3.752155 -3.852740 -2.005208 -5.299357 3.195214 -26.317821 0.663394 10.266667 26.826794 -0.822309 6.063383 8.227643 0.030700 1.130700 3.108400 3.457284 3.441066 -0.919414 15.180063 0.985770 -16.496691 -2.065441 -12.591449 34.500018 -1.488317 3.858342 3.258741 -0.010000 0.647100 -1.778300 0.973284 2.126358 7.973060 3.998749 3.129076 0.156355 -2.689477 1.583927 -8.982621 -4.026789 -1.865384 -24.743996 11.963807 -2.672220 22.676898 1.904900 0.233600 12.302100 0.760604 -1.278290 -1.451009 -79.916428 3.213102 52.748552 22.662396 -31.522279 -8.637215 -1.124727 -1.899798 -14.191250 15.701321 9.064013 3.274900 -7.125000 0.000000 0.000000 -8.674200 40.924400 0.879300 0.861061 5.235696 0.910040 86.224069 -19.985218 21.689396 -38.823494 46.876766 -16.237888 0.520446 -0.742737 -28.513572 -15.063218 -5.042487 1.112100 7.125000 0.000000 0.000000 9.413000 -34.116800 2.542300 
2.955729 18.040292 9.277927 -174.127615 5.445220 -170.843119 -3.738647 -3.873776 -2.005063 -5.480877 3.574309 -26.532925 0.650653 10.238720 26.780917 -0.761955 5.849936 8.262803 0.029600 1.110200 3.052100 3.427201 3.459422 -0.946556 15.046582 0.668617 -16.931256 -2.122329 -12.654218 34.738128 -1.543694 4.130555 3.681895 -0.002800 0.343900 -0.945000 0.892255 2.099397 8.023668 3.925968 3.082170 0.033644 -2.514885 1.571907 -9.061257 -4.075611 -1.840201 -24.711047 11.927546 -2.609520 22.504359 1.908000 0.246700 12.235300 1.014103 -1.269837 -1.424414 -78.297440 3.970229 56.436724 25.910082 -34.869187 -10.929011 -0.928772 -1.785883 -14.782251 14.559504 8.614439 2.861000 -7.125000 0.000000 0.000000 -9.743800 40.276000 1.147300 0.805842 5.211694 0.921485 86.217109 -20.796795 23.117743 -41.923995 48.660310 -18.263379 0.468582 -0.715857 -27.932124 -12.600436 -3.474973 0.584900 7.125000 0.000000 0.000000 11.214700 -32.502800 3.490000 
2.907189 18.049191 9.249959 -174.185234 5.818795 -170.626153 -3.748484 -3.891379 -2.000751 -5.721346 3.716757 -26.646851 0.641871 10.231393 26.754344 -0.819277 6.018036 8.082371 0.038600 1.267700 3.485800 3.404654 3.476045 -0.975094 14.780992 0.442590 -17.336460 -2.179610 -12.709614 34.957666 -1.574420 4.276959 3.985653 -0.002900 0.347200 -0.954100 0.771118 2.060484 7.981361 3.829182 3.014533 -0.049519 -2.289971 1.550547 -9.067103 -4.075066 -1.745963 -24.737443 11.833619 -2.457520 22.379891 1.907400 0.297700 12.191100 1.242886 -1.237664 -1.391861 -76.738186 4.566003 59.665685 29.575124 -38.161794 -13.675065 -0.755145 -1.594869 -15.121865 13.157373 7.523853 2.249500 -7.125000 0.000000 0.000000 -10.889300 38.898400 1.660000 0.796833 5.146124 0.948314 83.690286 -21.219375 26.715144 -45.143219 50.356559 -20.683651 0.404731 -0.826147 -29.668050 -16.994177 1.334444 -0.699400 7.125000 0.000000 0.000000 7.410100 -27.555800 3.166000 
2.867317 18.051734 9.227769 -174.052397 6.137789 -170.530651 -3.726610 -3.891413 -1.989279 -5.797820 4.081107 -26.758179 0.655039 10.227043 26.778202 -0.806736 5.964298 8.067791 0.035900 1.222400 3.361000 3.380369 3.483390 -0.991708 14.831548 0.152719 -17.605977 -2.238058 -12.779410 35.183436 -1.532807 4.100412 4.000270 -0.003500 0.379600 -1.042900 0.831145 2.087234 7.993031 3.774706 3.052100 -0.102618 -2.195560 1.566210 -9.059784 -4.074117 -1.742513 -24.735710 11.752196 -2.452578 22.363536 1.886900 0.288400 12.182000 1.468644 -1.231893 -1.323511 -74.950372 4.652950 63.444182 33.712340 -41.368359 -16.925486 -0.533130 -1.510502 -16.482392 11.547519 7.510154 1.941900 -7.125000 0.000000 0.000000 -12.417200 38.707300 1.960500 0.755363 5.117805 0.952538 82.581596 -21.617633 29.847768 -49.389877 52.199188 -23.529892 0.385318 -0.648595 -30.360002 -10.327962 -0.953967 0.034000 7.125000 0.000000 0.000000 12.738500 -30.036700 4.757500 
2.824209 18.056588 9.203500 -174.002867 6.473991 -170.379701 -3.714775 -3.901592 -1.985740 -5.942120 4.336408 -26.890037 0.667472 10.235775 26.825184 -0.819990 5.983818 7.956699 0.038600 1.268100 3.486800 3.355596 3.493240 -1.010832 14.757421 -0.138395 -17.940595 -2.293194 -12.837512 35.390236 -1.516024 4.031192 4.141461 -0.004700 0.443400 -1.218200 0.816793 2.096240 7.972433 3.708435 3.057611 -0.166686 -2.075673 1.573227 -9.012959 -3.660384 -2.695558 -24.752068 11.282164 -2.043262 22.444612 1.883900 1.137100 12.186300 1.667519 -1.226541 -1.280712 -73.233734 4.766516 66.267144 38.230807 -44.345427 -20.654067 -0.380817 -1.351987 -16.897369 9.989740 6.882113 1.525500 -7.125000 0.000000 0.000000 -13.725400 37.849900 2.472100 0.708821 5.058794 0.926966 81.229725 -21.926371 32.596104 -53.584485 53.772803 -26.606626 0.333707 -0.602854 -30.965129 -8.481582 -0.103615 -0.088200 7.125000 0.000000 0.000000 14.077900 -29.237000 5.561800 
2.782835 18.060401 9.180848 -173.947942 6.805476 -170.236376 -3.698079 -3.909726 -1.984360 -6.079799 4.600121 -27.037279 0.685646 10.254267 26.901032 -0.826291 5.978199 7.847517 0.041100 1.308100 3.597000 3.330988 3.504443 -1.029352 14.718989 -0.451571 -18.264484 -2.351307 -12.896769 35.597833 -1.469636 3.825644 4.193515 -0.007500 0.559900 -1.538500 0.800074 2.104885 7.937497 3.649467 3.065414 -0.235117 -1.973930 1.577226 -8.998338 -3.689190 -2.688634 -24.763734 11.249116 -2.027038 22.423466 1.882800 1.136400 12.177000 1.862820 -1.211632 -1.203115 -71.507425 4.694804 68.886840 43.245587 -47.118555 -24.966479 -0.241212 -1.210498 -17.411359 8.454222 6.501757 1.204100 -7.125000 0.000000 0.000000 -15.035800 37.266300 2.942600 0.673472 5.030081 0.925565 79.824142 -22.089992 35.405537 -58.183926 55.191854 -30.071190 0.280090 -0.554950 -31.626511 -6.725172 0.596507 -0.142800 7.125000 0.000000 0.000000 15.347700 -28.597900 6.338800 
